<svg width="32" height="32" viewBox="0 0 32 32" fill="none" xmlns="http://www.w3.org/2000/svg">
<path d="M24.292 15.547C26.26 15.678 28.021 14.334 28.407 12.402C27.932 11.667 27.12 11.225 26.246 11.225C23.974 11.173 22.755 13.876 24.293 15.548L24.292 15.547ZM15.115 4.69699L20.474 1.59299L18.766 0.629993L11.375 4.91099L11.964 5.23899L13.083 5.86799L15.115 4.69199V4.69699ZM21.161 1.30699C21.25 1.33399 21.322 1.40699 21.349 1.49499L23.833 9.08799C23.88 9.21899 23.828 9.35999 23.708 9.43199C21.74 10.588 20.792 12.921 21.391 15.125C22.047 17.516 24.328 19.078 26.792 18.828C26.927 18.817 27.057 18.901 27.099 19.031L29.662 26.834C29.703 26.965 29.651 27.105 29.537 27.178L21.678 31.949C21.641 31.97 21.594 31.985 21.547 31.985C21.479 32.001 21.407 31.985 21.344 31.944L18.579 30.147C18.531 30.116 18.495 30.07 18.47 30.018L13.074 17.122L4.85499 21.997C4.83899 22.008 4.81799 22.018 4.80299 22.029C4.71899 22.065 4.61999 22.054 4.54199 22.008L2.68299 20.915C2.54699 20.842 2.49499 20.67 2.56799 20.534L10.521 4.78499C10.546 4.72799 10.598 4.68099 10.656 4.65399L18.615 0.0449927C18.703 -0.00700728 18.812 -0.0120073 18.907 0.0399927L21.161 1.30699ZM12.839 6.40699L10.907 5.31799L3.21399 20.547L4.60999 21.37L11.241 12.355C11.304 12.266 11.408 12.219 11.512 12.235C11.616 12.246 11.704 12.312 11.747 12.412L18.975 29.708L20.908 30.959L12.845 6.40699H12.839ZM26.245 16.964C23.989 16.964 22.458 14.672 23.322 12.588C24.182 10.505 26.885 9.96899 28.478 11.563C29.073 12.156 29.406 12.959 29.406 13.798C29.411 15.547 27.994 16.964 26.245 16.964Z" fill="white"/>
</svg>
